<svg width="314" height="56" viewBox="0 0 314 56" fill="none" xmlns="http://www.w3.org/2000/svg">
<rect width="314" height="56" rx="28" fill="#D8DB2F"/>
<path d="M58.75 18.25H45.25C44.8522 18.25 44.4706 18.408 44.1893 18.6893C43.908 18.9706 43.75 19.3522 43.75 19.75V36.25C43.75 36.6478 43.908 37.0294 44.1893 37.3107C44.4706 37.592 44.8522 37.75 45.25 37.75H58.75C59.1478 37.75 59.5294 37.592 59.8107 37.3107C60.092 37.0294 60.25 36.6478 60.25 36.25V19.75C60.25 19.3522 60.092 18.9706 59.8107 18.6893C59.5294 18.408 59.1478 18.25 58.75 18.25ZM48.25 34.75C48.0275 34.75 47.81 34.684 47.625 34.5604C47.44 34.4368 47.2958 34.2611 47.2106 34.0555C47.1255 33.85 47.1032 33.6238 47.1466 33.4055C47.19 33.1873 47.2972 32.9868 47.4545 32.8295C47.6118 32.6722 47.8123 32.565 48.0305 32.5216C48.2488 32.4782 48.475 32.5005 48.6805 32.5856C48.8861 32.6708 49.0618 32.815 49.1854 33C49.309 33.185 49.375 33.4025 49.375 33.625C49.375 33.9234 49.2565 34.2095 49.0455 34.4205C48.8345 34.6315 48.5484 34.75 48.25 34.75ZM48.25 31C48.0275 31 47.81 30.934 47.625 30.8104C47.44 30.6868 47.2958 30.5111 47.2106 30.3055C47.1255 30.1 47.1032 29.8738 47.1466 29.6555C47.19 29.4373 47.2972 29.2368 47.4545 29.0795C47.6118 28.9222 47.8123 28.815 48.0305 28.7716C48.2488 28.7282 48.475 28.7505 48.6805 28.8356C48.8861 28.9208 49.0618 29.065 49.1854 29.25C49.309 29.435 49.375 29.6525 49.375 29.875C49.375 30.1734 49.2565 30.4595 49.0455 30.6705C48.8345 30.8815 48.5484 31 48.25 31ZM52 34.75C51.7775 34.75 51.56 34.684 51.375 34.5604C51.19 34.4368 51.0458 34.2611 50.9606 34.0555C50.8755 33.85 50.8532 33.6238 50.8966 33.4055C50.94 33.1873 51.0472 32.9868 51.2045 32.8295C51.3618 32.6722 51.5623 32.565 51.7805 32.5216C51.9988 32.4782 52.225 32.5005 52.4305 32.5856C52.6361 32.6708 52.8118 32.815 52.9354 33C53.059 33.185 53.125 33.4025 53.125 33.625C53.125 33.9234 53.0065 34.2095 52.7955 34.4205C52.5845 34.6315 52.2984 34.75 52 34.75ZM52 31C51.7775 31 51.56 30.934 51.375 30.8104C51.19 30.6868 51.0458 30.5111 50.9606 30.3055C50.8755 30.1 50.8532 29.8738 50.8966 29.6555C50.94 29.4373 51.0472 29.2368 51.2045 29.0795C51.3618 28.9222 51.5623 28.815 51.7805 28.7716C51.9988 28.7282 52.225 28.7505 52.4305 28.8356C52.6361 28.9208 52.8118 29.065 52.9354 29.25C53.059 29.435 53.125 29.6525 53.125 29.875C53.125 30.1734 53.0065 30.4595 52.7955 30.6705C52.5845 30.8815 52.2984 31 52 31ZM55.75 34.75C55.5275 34.75 55.31 34.684 55.125 34.5604C54.94 34.4368 54.7958 34.2611 54.7106 34.0555C54.6255 33.85 54.6032 33.6238 54.6466 33.4055C54.69 33.1873 54.7972 32.9868 54.9545 32.8295C55.1118 32.6722 55.3123 32.565 55.5305 32.5216C55.7488 32.4782 55.975 32.5005 56.1805 32.5856C56.3861 32.6708 56.5618 32.815 56.6854 33C56.809 33.185 56.875 33.4025 56.875 33.625C56.875 33.9234 56.7565 34.2095 56.5455 34.4205C56.3345 34.6315 56.0484 34.75 55.75 34.75ZM55.75 31C55.5275 31 55.31 30.934 55.125 30.8104C54.94 30.6868 54.7958 30.5111 54.7106 30.3055C54.6255 30.1 54.6032 29.8738 54.6466 29.6555C54.69 29.4373 54.7972 29.2368 54.9545 29.0795C55.1118 28.9222 55.3123 28.815 55.5305 28.7716C55.7488 28.7282 55.975 28.7505 56.1805 28.8356C56.3861 28.9208 56.5618 29.065 56.6854 29.25C56.809 29.435 56.875 29.6525 56.875 29.875C56.875 30.1734 56.7565 30.4595 56.5455 30.6705C56.3345 30.8815 56.0484 31 55.75 31ZM57.25 25.75C57.25 25.9489 57.171 26.1397 57.0303 26.2803C56.8897 26.421 56.6989 26.5 56.5 26.5H47.5C47.3011 26.5 47.1103 26.421 46.9697 26.2803C46.829 26.1397 46.75 25.9489 46.75 25.75V22C46.75 21.8011 46.829 21.6103 46.9697 21.4697C47.1103 21.329 47.3011 21.25 47.5 21.25H56.5C56.6989 21.25 56.8897 21.329 57.0303 21.4697C57.171 21.6103 57.25 21.8011 57.25 22V25.75Z" fill="#133041"/>
<path d="M84.0003 35.716C83.0403 35.716 82.1523 35.542 81.3363 35.194C80.5323 34.846 79.8243 34.36 79.2123 33.736C78.6123 33.112 78.1443 32.38 77.8083 31.54C77.4723 30.7 77.3043 29.782 77.3043 28.786C77.3043 27.79 77.4663 26.872 77.7903 26.032C78.1263 25.18 78.5943 24.448 79.1943 23.836C79.8063 23.212 80.5203 22.732 81.3363 22.396C82.1523 22.048 83.0403 21.874 84.0003 21.874C84.9603 21.874 85.8183 22.036 86.5743 22.36C87.3423 22.684 87.9903 23.116 88.5183 23.656C89.0463 24.184 89.4243 24.766 89.6523 25.402L87.4563 26.428C87.2043 25.756 86.7783 25.204 86.1783 24.772C85.5783 24.328 84.8523 24.106 84.0003 24.106C83.1603 24.106 82.4163 24.304 81.7683 24.7C81.1323 25.096 80.6343 25.642 80.2743 26.338C79.9263 27.034 79.7523 27.85 79.7523 28.786C79.7523 29.722 79.9263 30.544 80.2743 31.252C80.6343 31.948 81.1323 32.494 81.7683 32.89C82.4163 33.286 83.1603 33.484 84.0003 33.484C84.8523 33.484 85.5783 33.268 86.1783 32.836C86.7783 32.392 87.2043 31.834 87.4563 31.162L89.6523 32.188C89.4243 32.824 89.0463 33.412 88.5183 33.952C87.9903 34.48 87.3423 34.906 86.5743 35.23C85.8183 35.554 84.9603 35.716 84.0003 35.716ZM94.236 35.716C93.552 35.716 92.958 35.602 92.454 35.374C91.95 35.146 91.56 34.822 91.284 34.402C91.008 33.97 90.87 33.472 90.87 32.908C90.87 32.368 90.99 31.888 91.23 31.468C91.47 31.036 91.842 30.676 92.346 30.388C92.85 30.1 93.486 29.896 94.254 29.776L97.458 29.254V31.054L94.704 31.522C94.236 31.606 93.888 31.756 93.66 31.972C93.432 32.188 93.318 32.47 93.318 32.818C93.318 33.154 93.444 33.424 93.696 33.628C93.96 33.82 94.284 33.916 94.668 33.916C95.16 33.916 95.592 33.814 95.964 33.61C96.348 33.394 96.642 33.1 96.846 32.728C97.062 32.356 97.17 31.948 97.17 31.504V28.984C97.17 28.564 97.002 28.216 96.666 27.94C96.342 27.652 95.91 27.508 95.37 27.508C94.866 27.508 94.416 27.646 94.02 27.922C93.636 28.186 93.354 28.54 93.174 28.984L91.248 28.048C91.44 27.532 91.74 27.088 92.148 26.716C92.568 26.332 93.06 26.032 93.624 25.816C94.188 25.6 94.8 25.492 95.46 25.492C96.264 25.492 96.972 25.642 97.584 25.942C98.196 26.23 98.67 26.638 99.006 27.166C99.354 27.682 99.528 28.288 99.528 28.984V35.5H97.296V33.826L97.8 33.79C97.548 34.21 97.248 34.564 96.9 34.852C96.552 35.128 96.156 35.344 95.712 35.5C95.268 35.644 94.776 35.716 94.236 35.716ZM101.707 35.5V21.874H104.065V35.5H101.707ZM110.959 35.716C109.987 35.716 109.111 35.494 108.331 35.05C107.563 34.594 106.957 33.982 106.513 33.214C106.069 32.434 105.847 31.558 105.847 30.586C105.847 29.614 106.069 28.744 106.513 27.976C106.957 27.208 107.563 26.602 108.331 26.158C109.111 25.714 109.987 25.492 110.959 25.492C111.655 25.492 112.303 25.618 112.903 25.87C113.503 26.11 114.019 26.446 114.451 26.878C114.895 27.298 115.213 27.802 115.405 28.39L113.335 29.29C113.155 28.798 112.849 28.402 112.417 28.102C111.997 27.802 111.511 27.652 110.959 27.652C110.443 27.652 109.981 27.778 109.573 28.03C109.177 28.282 108.865 28.63 108.637 29.074C108.409 29.518 108.295 30.028 108.295 30.604C108.295 31.18 108.409 31.69 108.637 32.134C108.865 32.578 109.177 32.926 109.573 33.178C109.981 33.43 110.443 33.556 110.959 33.556C111.523 33.556 112.015 33.406 112.435 33.106C112.855 32.806 113.155 32.404 113.335 31.9L115.405 32.836C115.213 33.388 114.901 33.886 114.469 34.33C114.037 34.762 113.521 35.104 112.921 35.356C112.321 35.596 111.667 35.716 110.959 35.716ZM120.686 35.716C119.93 35.716 119.27 35.548 118.706 35.212C118.154 34.876 117.728 34.408 117.428 33.808C117.14 33.208 116.996 32.506 116.996 31.702V25.708H119.354V31.504C119.354 31.912 119.432 32.272 119.588 32.584C119.756 32.884 119.99 33.124 120.29 33.304C120.602 33.472 120.95 33.556 121.334 33.556C121.718 33.556 122.06 33.472 122.36 33.304C122.66 33.124 122.894 32.878 123.062 32.566C123.23 32.254 123.314 31.882 123.314 31.45V25.708H125.672V35.5H123.44V33.574L123.638 33.916C123.41 34.516 123.032 34.966 122.504 35.266C121.988 35.566 121.382 35.716 120.686 35.716ZM127.864 35.5V21.874H130.222V35.5H127.864ZM135.369 35.716C134.685 35.716 134.091 35.602 133.587 35.374C133.083 35.146 132.693 34.822 132.417 34.402C132.141 33.97 132.003 33.472 132.003 32.908C132.003 32.368 132.123 31.888 132.363 31.468C132.603 31.036 132.975 30.676 133.479 30.388C133.983 30.1 134.619 29.896 135.387 29.776L138.591 29.254V31.054L135.837 31.522C135.369 31.606 135.021 31.756 134.793 31.972C134.565 32.188 134.451 32.47 134.451 32.818C134.451 33.154 134.577 33.424 134.829 33.628C135.093 33.82 135.417 33.916 135.801 33.916C136.293 33.916 136.725 33.814 137.097 33.61C137.481 33.394 137.775 33.1 137.979 32.728C138.195 32.356 138.303 31.948 138.303 31.504V28.984C138.303 28.564 138.135 28.216 137.799 27.94C137.475 27.652 137.043 27.508 136.503 27.508C135.999 27.508 135.549 27.646 135.153 27.922C134.769 28.186 134.487 28.54 134.307 28.984L132.381 28.048C132.573 27.532 132.873 27.088 133.281 26.716C133.701 26.332 134.193 26.032 134.757 25.816C135.321 25.6 135.933 25.492 136.593 25.492C137.397 25.492 138.105 25.642 138.717 25.942C139.329 26.23 139.803 26.638 140.139 27.166C140.487 27.682 140.661 28.288 140.661 28.984V35.5H138.429V33.826L138.933 33.79C138.681 34.21 138.381 34.564 138.033 34.852C137.685 35.128 137.289 35.344 136.845 35.5C136.401 35.644 135.909 35.716 135.369 35.716ZM147.128 35.608C146.024 35.608 145.166 35.308 144.554 34.708C143.954 34.096 143.654 33.238 143.654 32.134V27.814H141.962V25.708H142.142C142.622 25.708 142.994 25.582 143.258 25.33C143.522 25.078 143.654 24.712 143.654 24.232V23.476H146.012V25.708H148.262V27.814H146.012V32.008C146.012 32.332 146.066 32.608 146.174 32.836C146.294 33.064 146.474 33.238 146.714 33.358C146.966 33.478 147.284 33.538 147.668 33.538C147.752 33.538 147.848 33.532 147.956 33.52C148.076 33.508 148.19 33.496 148.298 33.484V35.5C148.13 35.524 147.938 35.548 147.722 35.572C147.506 35.596 147.308 35.608 147.128 35.608ZM154.656 35.716C153.648 35.716 152.766 35.488 152.01 35.032C151.254 34.576 150.666 33.958 150.246 33.178C149.826 32.398 149.616 31.534 149.616 30.586C149.616 29.602 149.826 28.732 150.246 27.976C150.678 27.208 151.26 26.602 151.992 26.158C152.736 25.714 153.564 25.492 154.476 25.492C155.244 25.492 155.916 25.618 156.492 25.87C157.08 26.122 157.578 26.47 157.986 26.914C158.394 27.358 158.706 27.868 158.922 28.444C159.138 29.008 159.246 29.62 159.246 30.28C159.246 30.448 159.234 30.622 159.21 30.802C159.198 30.982 159.168 31.138 159.12 31.27H151.56V29.47H157.788L156.672 30.316C156.78 29.764 156.75 29.272 156.582 28.84C156.426 28.408 156.162 28.066 155.79 27.814C155.43 27.562 154.992 27.436 154.476 27.436C153.984 27.436 153.546 27.562 153.162 27.814C152.778 28.054 152.484 28.414 152.28 28.894C152.088 29.362 152.016 29.932 152.064 30.604C152.016 31.204 152.094 31.738 152.298 32.206C152.514 32.662 152.826 33.016 153.234 33.268C153.654 33.52 154.134 33.646 154.674 33.646C155.214 33.646 155.67 33.532 156.042 33.304C156.426 33.076 156.726 32.77 156.942 32.386L158.85 33.322C158.658 33.79 158.358 34.204 157.95 34.564C157.542 34.924 157.056 35.206 156.492 35.41C155.94 35.614 155.328 35.716 154.656 35.716ZM164.431 35.5V22.09H169.417C170.329 22.09 171.133 22.258 171.829 22.594C172.537 22.918 173.089 23.398 173.485 24.034C173.881 24.658 174.079 25.42 174.079 26.32C174.079 27.244 173.857 28.03 173.413 28.678C172.981 29.326 172.393 29.806 171.649 30.118L174.727 35.5H171.955L168.661 29.614L170.245 30.55H166.879V35.5H164.431ZM166.879 28.39H169.453C169.897 28.39 170.281 28.306 170.605 28.138C170.929 27.958 171.181 27.712 171.361 27.4C171.541 27.088 171.631 26.728 171.631 26.32C171.631 25.9 171.541 25.54 171.361 25.24C171.181 24.928 170.929 24.688 170.605 24.52C170.281 24.34 169.897 24.25 169.453 24.25H166.879V28.39ZM180.232 35.716C179.224 35.716 178.342 35.488 177.586 35.032C176.83 34.576 176.242 33.958 175.822 33.178C175.402 32.398 175.192 31.534 175.192 30.586C175.192 29.602 175.402 28.732 175.822 27.976C176.254 27.208 176.836 26.602 177.568 26.158C178.312 25.714 179.14 25.492 180.052 25.492C180.82 25.492 181.492 25.618 182.068 25.87C182.656 26.122 183.154 26.47 183.562 26.914C183.97 27.358 184.282 27.868 184.498 28.444C184.714 29.008 184.822 29.62 184.822 30.28C184.822 30.448 184.81 30.622 184.786 30.802C184.774 30.982 184.744 31.138 184.696 31.27H177.136V29.47H183.364L182.248 30.316C182.356 29.764 182.326 29.272 182.158 28.84C182.002 28.408 181.738 28.066 181.366 27.814C181.006 27.562 180.568 27.436 180.052 27.436C179.56 27.436 179.122 27.562 178.738 27.814C178.354 28.054 178.06 28.414 177.856 28.894C177.664 29.362 177.592 29.932 177.64 30.604C177.592 31.204 177.67 31.738 177.874 32.206C178.09 32.662 178.402 33.016 178.81 33.268C179.23 33.52 179.71 33.646 180.25 33.646C180.79 33.646 181.246 33.532 181.618 33.304C182.002 33.076 182.302 32.77 182.518 32.386L184.426 33.322C184.234 33.79 183.934 34.204 183.526 34.564C183.118 34.924 182.632 35.206 182.068 35.41C181.516 35.614 180.904 35.716 180.232 35.716ZM186.61 39.1V25.708H188.824V27.652L188.608 27.166C188.944 26.638 189.4 26.23 189.976 25.942C190.552 25.642 191.218 25.492 191.974 25.492C192.898 25.492 193.732 25.72 194.476 26.176C195.22 26.632 195.808 27.244 196.24 28.012C196.684 28.78 196.906 29.644 196.906 30.604C196.906 31.552 196.69 32.416 196.258 33.196C195.826 33.976 195.238 34.594 194.494 35.05C193.75 35.494 192.904 35.716 191.956 35.716C191.248 35.716 190.594 35.578 189.994 35.302C189.406 35.014 188.938 34.606 188.59 34.078L188.968 33.61V39.1H186.61ZM191.686 33.556C192.226 33.556 192.706 33.43 193.126 33.178C193.546 32.926 193.87 32.578 194.098 32.134C194.338 31.69 194.458 31.18 194.458 30.604C194.458 30.028 194.338 29.524 194.098 29.092C193.87 28.648 193.546 28.3 193.126 28.048C192.706 27.784 192.226 27.652 191.686 27.652C191.17 27.652 190.702 27.778 190.282 28.03C189.874 28.282 189.55 28.636 189.31 29.092C189.082 29.536 188.968 30.04 188.968 30.604C188.968 31.18 189.082 31.69 189.31 32.134C189.55 32.578 189.874 32.926 190.282 33.178C190.702 33.43 191.17 33.556 191.686 33.556ZM201.673 35.716C200.989 35.716 200.395 35.602 199.891 35.374C199.387 35.146 198.997 34.822 198.721 34.402C198.445 33.97 198.307 33.472 198.307 32.908C198.307 32.368 198.427 31.888 198.667 31.468C198.907 31.036 199.279 30.676 199.783 30.388C200.287 30.1 200.923 29.896 201.691 29.776L204.895 29.254V31.054L202.141 31.522C201.673 31.606 201.325 31.756 201.097 31.972C200.869 32.188 200.755 32.47 200.755 32.818C200.755 33.154 200.881 33.424 201.133 33.628C201.397 33.82 201.721 33.916 202.105 33.916C202.597 33.916 203.029 33.814 203.401 33.61C203.785 33.394 204.079 33.1 204.283 32.728C204.499 32.356 204.607 31.948 204.607 31.504V28.984C204.607 28.564 204.439 28.216 204.103 27.94C203.779 27.652 203.347 27.508 202.807 27.508C202.303 27.508 201.853 27.646 201.457 27.922C201.073 28.186 200.791 28.54 200.611 28.984L198.685 28.048C198.877 27.532 199.177 27.088 199.585 26.716C200.005 26.332 200.497 26.032 201.061 25.816C201.625 25.6 202.237 25.492 202.897 25.492C203.701 25.492 204.409 25.642 205.021 25.942C205.633 26.23 206.107 26.638 206.443 27.166C206.791 27.682 206.965 28.288 206.965 28.984V35.5H204.733V33.826L205.237 33.79C204.985 34.21 204.685 34.564 204.337 34.852C203.989 35.128 203.593 35.344 203.149 35.5C202.705 35.644 202.213 35.716 201.673 35.716ZM210.333 39.478C210.069 39.478 209.811 39.454 209.559 39.406C209.307 39.37 209.079 39.304 208.875 39.208V37.228C209.031 37.264 209.217 37.3 209.433 37.336C209.661 37.372 209.871 37.39 210.063 37.39C210.603 37.39 210.993 37.264 211.233 37.012C211.485 36.76 211.707 36.43 211.899 36.022L212.547 34.51L212.511 36.49L208.245 25.708H210.783L213.771 33.664H212.871L215.841 25.708H218.397L214.131 36.49C213.879 37.126 213.573 37.666 213.213 38.11C212.853 38.554 212.433 38.89 211.953 39.118C211.485 39.358 210.945 39.478 210.333 39.478ZM219.692 35.5V25.708H221.906V27.976L221.654 27.598C221.834 26.89 222.194 26.362 222.734 26.014C223.274 25.666 223.91 25.492 224.642 25.492C225.446 25.492 226.154 25.702 226.766 26.122C227.378 26.542 227.774 27.094 227.954 27.778L227.288 27.832C227.588 27.052 228.038 26.47 228.638 26.086C229.238 25.69 229.928 25.492 230.708 25.492C231.404 25.492 232.022 25.648 232.562 25.96C233.114 26.272 233.546 26.71 233.858 27.274C234.17 27.826 234.326 28.468 234.326 29.2V35.5H231.968V29.758C231.968 29.326 231.89 28.954 231.734 28.642C231.578 28.33 231.362 28.09 231.086 27.922C230.81 27.742 230.474 27.652 230.078 27.652C229.706 27.652 229.376 27.742 229.088 27.922C228.8 28.09 228.578 28.33 228.422 28.642C228.266 28.954 228.188 29.326 228.188 29.758V35.5H225.83V29.758C225.83 29.326 225.752 28.954 225.596 28.642C225.44 28.33 225.218 28.09 224.93 27.922C224.654 27.742 224.324 27.652 223.94 27.652C223.568 27.652 223.238 27.742 222.95 27.922C222.662 28.09 222.44 28.33 222.284 28.642C222.128 28.954 222.05 29.326 222.05 29.758V35.5H219.692ZM240.965 35.716C239.957 35.716 239.075 35.488 238.319 35.032C237.563 34.576 236.975 33.958 236.555 33.178C236.135 32.398 235.925 31.534 235.925 30.586C235.925 29.602 236.135 28.732 236.555 27.976C236.987 27.208 237.569 26.602 238.301 26.158C239.045 25.714 239.873 25.492 240.785 25.492C241.553 25.492 242.225 25.618 242.801 25.87C243.389 26.122 243.887 26.47 244.295 26.914C244.703 27.358 245.015 27.868 245.231 28.444C245.447 29.008 245.555 29.62 245.555 30.28C245.555 30.448 245.543 30.622 245.519 30.802C245.507 30.982 245.477 31.138 245.429 31.27H237.869V29.47H244.097L242.981 30.316C243.089 29.764 243.059 29.272 242.891 28.84C242.735 28.408 242.471 28.066 242.099 27.814C241.739 27.562 241.301 27.436 240.785 27.436C240.293 27.436 239.855 27.562 239.471 27.814C239.087 28.054 238.793 28.414 238.589 28.894C238.397 29.362 238.325 29.932 238.373 30.604C238.325 31.204 238.403 31.738 238.607 32.206C238.823 32.662 239.135 33.016 239.543 33.268C239.963 33.52 240.443 33.646 240.983 33.646C241.523 33.646 241.979 33.532 242.351 33.304C242.735 33.076 243.035 32.77 243.251 32.386L245.159 33.322C244.967 33.79 244.667 34.204 244.259 34.564C243.851 34.924 243.365 35.206 242.801 35.41C242.249 35.614 241.637 35.716 240.965 35.716ZM247.342 35.5V25.708H249.556V27.634L249.376 27.292C249.604 26.704 249.976 26.26 250.492 25.96C251.02 25.648 251.632 25.492 252.328 25.492C253.048 25.492 253.684 25.648 254.236 25.96C254.8 26.272 255.238 26.71 255.55 27.274C255.862 27.826 256.018 28.468 256.018 29.2V35.5H253.66V29.758C253.66 29.326 253.576 28.954 253.408 28.642C253.24 28.33 253.006 28.09 252.706 27.922C252.418 27.742 252.076 27.652 251.68 27.652C251.296 27.652 250.954 27.742 250.654 27.922C250.354 28.09 250.12 28.33 249.952 28.642C249.784 28.954 249.7 29.326 249.7 29.758V35.5H247.342ZM262.476 35.608C261.372 35.608 260.514 35.308 259.902 34.708C259.302 34.096 259.002 33.238 259.002 32.134V27.814H257.31V25.708H257.49C257.97 25.708 258.342 25.582 258.606 25.33C258.87 25.078 259.002 24.712 259.002 24.232V23.476H261.36V25.708H263.61V27.814H261.36V32.008C261.36 32.332 261.414 32.608 261.522 32.836C261.642 33.064 261.822 33.238 262.062 33.358C262.314 33.478 262.632 33.538 263.016 33.538C263.1 33.538 263.196 33.532 263.304 33.52C263.424 33.508 263.538 33.496 263.646 33.484V35.5C263.478 35.524 263.286 35.548 263.07 35.572C262.854 35.596 262.656 35.608 262.476 35.608ZM269.174 35.716C268.13 35.716 267.218 35.47 266.438 34.978C265.67 34.474 265.142 33.796 264.854 32.944L266.618 32.098C266.87 32.65 267.218 33.082 267.662 33.394C268.118 33.706 268.622 33.862 269.174 33.862C269.606 33.862 269.948 33.766 270.2 33.574C270.452 33.382 270.578 33.13 270.578 32.818C270.578 32.626 270.524 32.47 270.416 32.35C270.32 32.218 270.182 32.11 270.002 32.026C269.834 31.93 269.648 31.852 269.444 31.792L267.842 31.342C267.014 31.102 266.384 30.736 265.952 30.244C265.532 29.752 265.322 29.17 265.322 28.498C265.322 27.898 265.472 27.376 265.772 26.932C266.084 26.476 266.51 26.122 267.05 25.87C267.602 25.618 268.232 25.492 268.94 25.492C269.864 25.492 270.68 25.714 271.388 26.158C272.096 26.602 272.6 27.226 272.9 28.03L271.1 28.876C270.932 28.432 270.65 28.078 270.254 27.814C269.858 27.55 269.414 27.418 268.922 27.418C268.526 27.418 268.214 27.508 267.986 27.688C267.758 27.868 267.644 28.102 267.644 28.39C267.644 28.57 267.692 28.726 267.788 28.858C267.884 28.99 268.016 29.098 268.184 29.182C268.364 29.266 268.568 29.344 268.796 29.416L270.362 29.884C271.166 30.124 271.784 30.484 272.216 30.964C272.66 31.444 272.882 32.032 272.882 32.728C272.882 33.316 272.726 33.838 272.414 34.294C272.102 34.738 271.67 35.086 271.118 35.338C270.566 35.59 269.918 35.716 269.174 35.716Z" fill="#133041"/>
</svg>
