<svg width="62" height="24" viewBox="0 0 62 24" fill="none" xmlns="http://www.w3.org/2000/svg">
<path d="M6.816 19.192C5.97333 19.192 5.19467 19.0427 4.48 18.744C3.776 18.4347 3.15733 18.0027 2.624 17.448C2.10133 16.8933 1.696 16.2427 1.408 15.496C1.12 14.7493 0.976 13.9333 0.976 13.048C0.976 12.152 1.12 11.3307 1.408 10.584C1.696 9.83733 2.10133 9.18667 2.624 8.632C3.14667 8.07733 3.76533 7.65067 4.48 7.352C5.19467 7.04267 5.97333 6.888 6.816 6.888C7.63733 6.888 8.37333 7.032 9.024 7.32C9.68533 7.608 10.24 7.98133 10.688 8.44C11.1467 8.89867 11.472 9.38933 11.664 9.912L10.224 10.568C9.94667 9.90667 9.51467 9.37333 8.928 8.968C8.34133 8.552 7.63733 8.344 6.816 8.344C5.984 8.344 5.24267 8.54133 4.592 8.936C3.952 9.33067 3.45067 9.88 3.088 10.584C2.72533 11.288 2.544 12.1093 2.544 13.048C2.544 13.976 2.72533 14.792 3.088 15.496C3.45067 16.2 3.952 16.7493 4.592 17.144C5.24267 17.5387 5.984 17.736 6.816 17.736C7.63733 17.736 8.34133 17.5333 8.928 17.128C9.51467 16.712 9.94667 16.1733 10.224 15.512L11.664 16.168C11.472 16.6907 11.1467 17.1813 10.688 17.64C10.24 18.0987 9.68533 18.472 9.024 18.76C8.37333 19.048 7.63733 19.192 6.816 19.192ZM13.6208 19V6.888H15.1088V19H13.6208ZM21.3856 19.192C20.5536 19.192 19.8123 18.9947 19.1616 18.6C18.511 18.2053 17.999 17.6667 17.6256 16.984C17.2523 16.2907 17.0656 15.5173 17.0656 14.664C17.0656 13.8 17.247 13.032 17.6096 12.36C17.983 11.688 18.4843 11.16 19.1136 10.776C19.7536 10.3813 20.4683 10.184 21.2576 10.184C21.8976 10.184 22.463 10.3013 22.9536 10.536C23.455 10.76 23.8763 11.0693 24.2176 11.464C24.5696 11.848 24.8363 12.2907 25.0176 12.792C25.2096 13.2827 25.3056 13.7947 25.3056 14.328C25.3056 14.4453 25.295 14.5787 25.2736 14.728C25.263 14.8667 25.247 15 25.2256 15.128H18.1536V13.848H24.3616L23.6576 14.424C23.7536 13.8693 23.7003 13.3733 23.4976 12.936C23.295 12.4987 22.9963 12.152 22.6016 11.896C22.207 11.64 21.759 11.512 21.2576 11.512C20.7563 11.512 20.2976 11.64 19.8816 11.896C19.4656 12.152 19.1403 12.52 18.9056 13C18.6816 13.4693 18.591 14.0293 18.6336 14.68C18.591 15.3093 18.687 15.864 18.9216 16.344C19.167 16.8133 19.5083 17.1813 19.9456 17.448C20.3936 17.704 20.879 17.832 21.4016 17.832C21.9776 17.832 22.463 17.6987 22.8576 17.432C23.2523 17.1653 23.5723 16.824 23.8176 16.408L25.0656 17.048C24.895 17.4427 24.6283 17.8053 24.2656 18.136C23.9136 18.456 23.4923 18.712 23.0016 18.904C22.5216 19.096 21.983 19.192 21.3856 19.192ZM29.6644 19.192C29.099 19.192 28.5977 19.0907 28.1604 18.888C27.7337 18.6747 27.3977 18.3867 27.1524 18.024C26.907 17.6507 26.7844 17.224 26.7844 16.744C26.7844 16.2853 26.8804 15.8747 27.0724 15.512C27.275 15.1387 27.5844 14.824 28.0004 14.568C28.427 14.312 28.9604 14.1307 29.6004 14.024L32.8004 13.496V14.744L29.9364 15.224C29.3817 15.32 28.9764 15.496 28.7204 15.752C28.475 16.008 28.3524 16.3227 28.3524 16.696C28.3524 17.048 28.491 17.3413 28.7684 17.576C29.0564 17.8107 29.4137 17.928 29.8404 17.928C30.3844 17.928 30.8537 17.816 31.2484 17.592C31.6537 17.3573 31.9684 17.0427 32.1924 16.648C32.427 16.2533 32.5444 15.816 32.5444 15.336V13.144C32.5444 12.6747 32.3684 12.296 32.0164 12.008C31.675 11.7093 31.2217 11.56 30.6564 11.56C30.1657 11.56 29.7284 11.688 29.3444 11.944C28.971 12.1893 28.6937 12.52 28.5124 12.936L27.2164 12.264C27.3764 11.8693 27.6324 11.5173 27.9844 11.208C28.3364 10.888 28.747 10.6373 29.2164 10.456C29.6857 10.2747 30.1764 10.184 30.6884 10.184C31.3497 10.184 31.931 10.312 32.4324 10.568C32.9337 10.8133 33.323 11.16 33.6004 11.608C33.8884 12.0453 34.0324 12.5573 34.0324 13.144V19H32.5764V17.368L32.8484 17.464C32.667 17.8053 32.4217 18.104 32.1124 18.36C31.803 18.616 31.4404 18.8187 31.0244 18.968C30.6084 19.1173 30.155 19.192 29.6644 19.192ZM36.3395 19V10.376H37.7955V11.96L37.6355 11.736C37.8382 11.2453 38.1475 10.8827 38.5635 10.648C38.9795 10.4027 39.4862 10.28 40.0835 10.28H40.6115V11.688H39.8595C39.2515 11.688 38.7608 11.88 38.3875 12.264C38.0142 12.6373 37.8275 13.1707 37.8275 13.864V19H36.3395ZM43.7229 19L47.9949 7.08H49.8509L54.1229 19H52.4429L51.4669 16.2H46.3789L45.4029 19H43.7229ZM46.8749 14.76H50.9709L48.6989 8.216H49.1469L46.8749 14.76ZM55.4489 19V6.888H56.9369V19H55.4489ZM59.2458 19V6.888H60.7338V19H59.2458Z" fill="#4E6E7E"/>
<path d="M0 21.8H26.0896V22.44H0V21.8ZM25.9844 21.8H40.7875V22.44H25.9844V21.8ZM40.7812 21.8H43.5493V22.44H40.7812V21.8ZM43.5469 21.8H54.2989V22.44H43.5469V21.8ZM54.2969 21.8H61.8857V22.44H54.2969V21.8Z" fill="#4E6E7E"/>
</svg>
